<?xml version="1.0" standalone="no"?>
<!DOCTYPE svg PUBLIC "-//W3C//DTD SVG 20010904//EN"
 "http://www.w3.org/TR/2001/REC-SVG-20010904/DTD/svg10.dtd">
<svg version="1.0" xmlns="http://www.w3.org/2000/svg"
 width="16667.000000pt" height="16667.000000pt" viewBox="0 0 16667.000000 16667.000000"
 preserveAspectRatio="xMidYMid meet">

<g transform="translate(0.000000,16667.000000) scale(0.100000,-0.100000)"
fill="#000000" stroke="none">
<path d="M24172 83352 c-1388 -7693 -2526 -13995 -2528 -14004 -5 -17 104 -18
2200 -18 l2204 0 6 28 c3 15 289 1600 636 3522 346 1922 633 3506 636 3520 6
24 7 24 18 -10 7 -19 473 -1616 1037 -3547 l1024 -3513 2734 0 c2182 0 2732 3
2728 13 -2 6 -1839 6300 -4081 13985 -2242 7685 -4080 13981 -4084 13992 -4
11 -1043 -5722 -2530 -13968z"/>
</g>
</svg>
