<svg id="Layer_1" data-name="Layer 1" xmlns="http://www.w3.org/2000/svg" viewBox="0 0 2000 500"><defs><style>.cls-1{fill:#fff;}.cls-2{fill:#1a59ff;}</style></defs><path class="cls-1" d="M143.57,81.83h66L224,283.15h1L261.63,81.83h46.85L247.14,418.16h-54L174.81,172.64h-1L129.08,418.16H82.24Z"/><polygon class="cls-2" points="418.48 418.17 352.88 418.17 327.99 332.86 312.6 418.17 259.65 418.17 320.35 81.83 418.48 418.17"/><path class="cls-1" d="M518,356.36V151.7h67.29l72.87,138.61h.62V151.7H708.4V356.36H645.14L568.23,213.1h-.62V356.36Z"/><path class="cls-1" d="M809.8,360.71q-23.26,0-38.92-6.67t-25.28-18.3a71.44,71.44,0,0,1-13.79-26.51,115.16,115.16,0,0,1-4.19-31.32,125.19,125.19,0,0,1,4.5-33.8,84.94,84.94,0,0,1,14-28.68,66.14,66.14,0,0,1,24.5-19.85q15-7.28,36.12-7.29t36.13,7.29a60.81,60.81,0,0,1,24,20.31A71.28,71.28,0,0,1,878.48,246a114.64,114.64,0,0,1-.77,36.9l-118.77,1.86V257.44l80.31-1.55-6.51,15.82q1.86-14.26-.46-24t-8.53-14.88q-6.21-5.11-17.06-5.12-11.48,0-18.29,5.9t-9.62,16.59A101.39,101.39,0,0,0,776,275.43q0,25.11,8.38,36.59T810.1,323.5a35.64,35.64,0,0,0,12.41-1.87,19.46,19.46,0,0,0,8.06-5.42,20.28,20.28,0,0,0,4.34-8.68,41,41,0,0,0,.93-11.63l45.9,2.48a59.55,59.55,0,0,1-2,21.08,50.88,50.88,0,0,1-11,20.16q-8.07,9.3-22.48,15.19T809.8,360.71Z"/><path class="cls-1" d="M879.25,356.36l51.48-82.17-50.86-81.56h58.3l23.88,53h1.55l23.26-53h57.68l-49.31,81.56,49.93,82.17H985.93l-22.64-52.09h-1.24l-25.12,52.09Z"/><path class="cls-1" d="M1118.34,360.71q-23.56,0-41.86-9.46A66.64,66.64,0,0,1,1048,322.72q-10.23-19.07-10.23-47.91,0-30.08,10.69-49.15t29.15-28.22q18.45-9.15,41.71-9.15,24.2,0,42.33,9.46t28.22,28.53q10.07,19.07,10.08,48.22,0,30.08-10.7,49.15t-29.15,28.06Q1141.6,360.71,1118.34,360.71Zm1.24-36.9q9.62,0,16.13-5.43t9.92-16q3.4-10.55,3.41-25.12,0-16.12-3.72-27.13t-10.7-16.9a25.3,25.3,0,0,0-16.9-5.9,23.92,23.92,0,0,0-15.81,5.43q-6.51,5.43-9.93,16t-3.41,25.43q0,23.57,8.22,36.59T1119.58,323.81Z"/><path class="cls-1" d="M1219.12,356.36V151.7h75.35l41.86,145.44h.63l40.93-145.44h71.32V356.36H1402.7V202.25h-.62l-46.21,154.11h-44l-45.59-154.11h-.62V356.36Z"/><path class="cls-1" d="M1515.88,360.71a64.37,64.37,0,0,1-23.57-4.35A40.22,40.22,0,0,1,1474,342.25q-7.14-9.76-7.14-26.2,0-15.18,5.9-24.65a44.5,44.5,0,0,1,15.81-15.2,84,84,0,0,1,21.71-8.68q11.78-2.94,23.26-5.12,16.11-3.09,24.18-5c5.38-1.24,9-2.68,11-4.34a8.41,8.41,0,0,0,3-6.82q0-9-6.67-13.64T1547.51,228a39.7,39.7,0,0,0-13.64,2.47,22.78,22.78,0,0,0-11.17,8.84q-4.34,6.36-4,18.14l-44.65-3.1q-.63-19.53,5.89-32.4a50.49,50.49,0,0,1,17.83-20.16,77.45,77.45,0,0,1,24.81-10.39,119.78,119.78,0,0,1,26.82-3.1q24.5,0,40.31,9.15a55.45,55.45,0,0,1,23.41,26.36q7.61,17.2,7.6,41.71v90.85h-43.41V309.54h-1.86a53.2,53.2,0,0,1-9.15,25.58,58.16,58.16,0,0,1-20.78,18.61Q1532.62,360.71,1515.88,360.71Zm20.78-36.6a36,36,0,0,0,11.31-2,34.21,34.21,0,0,0,11.48-6.67,33.48,33.48,0,0,0,8.83-12.87q3.42-8.21,3.42-20.31v-7.44l8.37-.93q-2.49,4-8.22,6.51a62.44,62.44,0,0,1-12.86,3.88l-14.43,2.79a83.08,83.08,0,0,0-13.49,3.72A27.84,27.84,0,0,0,1521,297q-3.88,3.88-3.88,10.7,0,8.07,5.74,12.25A22.75,22.75,0,0,0,1536.66,324.11Z"/><path class="cls-1" d="M1641.16,356.36V192.63h43.41v65.12h2.48q1.86-26,7.29-41.08t13.65-21.4a29.34,29.34,0,0,1,18.44-6.36,46.91,46.91,0,0,1,11.63,1.55,47.5,47.5,0,0,1,11.94,5l-2.48,55.82a63.08,63.08,0,0,0-13.33-6,41.84,41.84,0,0,0-12.41-2q-9.91,0-16.74,5.58t-10.39,16.44q-3.57,10.85-3.57,26.35v64.81Z"/><path class="cls-1" d="M1765.2,356.36V139.29h49V254.34a83,83,0,0,0,18.14-12.71,81,81,0,0,0,12.87-15.35,91.56,91.56,0,0,0,8.53-16.75,159.73,159.73,0,0,0,5.43-16.9h57.67a112.13,112.13,0,0,1-9.76,24,109,109,0,0,1-15.66,21.7,116.14,116.14,0,0,1-21.56,18.15,125,125,0,0,1-27.13,13.33v2.48q19.23-3.1,31.48-.78t19.38,8.69a42.21,42.21,0,0,1,11,16,111.49,111.49,0,0,1,6,21.39l7.13,38.76H1863.5l-3.41-27.28a159.19,159.19,0,0,0-3.41-18.61,26.91,26.91,0,0,0-8.38-14.11q-6.19-5.42-19.54-5.43h-14.57v65.43Z"/></svg>